<svg xmlns:xlink="http://www.w3.org/1999/xlink" xmlns="http://www.w3.org/2000/svg" class="icon icon--default list__icon" width="25.8"  height="27.5" ><defs><symbol viewBox="0.1 0.9 25.8 27.5" id="profile" xmlns="http://www.w3.org/2000/svg"><path d="M13 .92a6.39 6.39 0 00-6.4 6.4v3.84c0 2.072 1.015 3.932 2.56 5.1v2.9c0 .068-.012.125-.18.28a3.886 3.886 0 01-.86.56c-.788.395-1.925.8-3.08 1.36s-2.352 1.272-3.28 2.3C.832 24.688.2 26.065.2 27.8v.64h25.6v-.64c0-1.75-.632-3.132-1.56-4.16s-2.125-1.728-3.28-2.28c-1.155-.552-2.295-.97-3.08-1.36-.392-.195-.695-.385-.86-.54-.165-.155-.18-.22-.18-.3v-2.9c1.545-1.168 2.56-3.028 2.56-5.1V7.32A6.39 6.39 0 0013 .92zm0 1.28a5.082 5.082 0 015.12 5.12v3.84a5.155 5.155 0 01-2.28 4.26l-.28.2v3.54c0 .495.255.932.58 1.24.325.308.732.538 1.18.76.895.445 1.995.84 3.08 1.36 1.085.52 2.128 1.148 2.88 1.98.625.69.988 1.575 1.12 2.66H1.6c.132-1.072.498-1.948 1.12-2.64.752-.835 1.795-1.472 2.88-2s2.188-.935 3.08-1.38c.445-.222.858-.458 1.18-.76.322-.302.58-.728.58-1.22v-3.54l-.28-.2a5.155 5.155 0 01-2.28-4.26V7.32A5.082 5.082 0 0113 2.2z" fill-rule="evenodd"></path></symbol></defs>
<use xlink:href="#profile" fill="#42526E"></use>
</svg>