<svg xmlns:xlink="http://www.w3.org/1999/xlink" xmlns="http://www.w3.org/2000/svg" class="icon list__icon" width="20"  height="20" ><defs><symbol fill="#33405B" viewBox="0 0 20 20" id="mail" xmlns="http://www.w3.org/2000/svg"><path d="M10.217 0C4.617 0 .064 4.518.003 10.104v.01C.063 15.58 4.52 20 10 20a9.995 9.995 0 008.382-4.545.435.435 0 10-.728-.475A9.118 9.118 0 0110 19.13a9.123 9.123 0 01-9.127-9.02A9.34 9.34 0 0110.217.87a8.03 8.03 0 018.028 7.722 7.673 7.673 0 01-1.887 4.71c-1.08 1.233-2.43 1.916-3.315 1.916a.862.862 0 01-.867-.862 8.366 8.366 0 01.502-2.056l2.943-7.355a.435.435 0 10-.807-.323l-.584 1.46c-.265-.59-.631-1.06-1.089-1.402-.74-.554-1.675-.766-2.706-.766-1.219 0-2.787.76-4.12 2.129a8.398 8.398 0 00-2.402 5.915 4.137 4.137 0 004.13 4.13 4.093 4.093 0 002.974-1.234c.11-.109.21-.22.305-.334a1.74 1.74 0 001.721 1.568c1.29 0 2.765-.839 3.969-2.214a8.555 8.555 0 002.077-4.767.435.435 0 00.041-.193c0-.143-.004-.286-.01-.428.001-.075.01-.148.01-.224a.435.435 0 00-.04-.188C18.665 3.55 14.852 0 10.217 0zm.218 4.783c.912 0 1.642.186 2.185.592.522.391.905 1.003 1.1 1.981l-1.85 4.628a.435.435 0 00-.008.017l-.156.39a.435.435 0 00-.022.033c-.342.547-.721 1.254-1.281 1.814-.56.56-1.267.98-2.36.98a3.255 3.255 0 01-3.26-3.261c0-2.288.955-4.078 2.154-5.309 1.2-1.23 2.675-1.865 3.498-1.865z" fill="#33405B"></path></symbol></defs>
<use xlink:href="#mail"></use>
</svg>