<svg xmlns:xlink="http://www.w3.org/1999/xlink" xmlns="http://www.w3.org/2000/svg" class="icon list__icon" width="30"  height="30" ><defs><symbol viewBox="0 0 30 30" id="flag-kuwait-circle" xmlns="http://www.w3.org/2000/svg"><g fill="none" fill-rule="evenodd"><path d="M29.128 20H9l-5.986 3.991C5.75 27.633 10.093 30 15 30c6.528 0 12.067-4.178 14.128-10" fill="#FF3D00"></path><path d="M9 10v10h20.128c.555-1.566.872-3.244.872-5 0-1.756-.317-3.434-.872-5H9z" fill="#ECEFF1"></path><path d="M3.014 6.01L9 10h20.128C27.067 4.177 21.528 0 15 0 10.094 0 5.75 2.366 3.014 6.01" fill="#689F38"></path><path d="M.872 10a14.943 14.943 0 012.142-3.99L8.999 10 9 20H.872A14.926 14.926 0 010 15c0-1.756.317-3.434.872-5zm2.142 13.991a14.958 14.958 0 01-2.142-3.99H9l-5.986 3.99z" fill="#37474F"></path></g></symbol></defs>
<use xlink:href="#flag-kuwait-circle"></use>
</svg>