<svg xmlns:xlink="http://www.w3.org/1999/xlink" xmlns="http://www.w3.org/2000/svg" style="margin: 0 auto 15px; display: block; width: 205px; height: 60px;" width="145"  height="42" ><defs><symbol viewBox="0 0 145 42" id="jarir-reader-logo" xmlns="http://www.w3.org/2000/svg"><g fill="#9E1D22" fill-rule="evenodd"><path d="M32.79 27.816l-12.378 5V9.2L32.79 4.201v23.615zm-5.023 5.867c-.656.255-1.188-.234-1.188-1.092 0-.86.532-1.76 1.188-2.016.655-.254 1.188.234 1.188 1.093 0 .858-.533 1.76-1.188 2.015zM11.504 31.64l-.082-3.306c2.86-.723 3.03-5.586 3.03-5.586l1.928.628c-.612 8.328-4.876 8.264-4.876 8.264zm-7.717-8.39l2.189.711S7 26.824 8.925 27.698l-.168-6.68 1.903.616.25 9.932s-4.553.16-7.123-8.316zm6.825-3.49c.022.896-.394 1.471-.919 1.301-.533-.173-.985-1.033-1.007-1.928-.023-.897.394-1.487.926-1.313.525.17.978 1.044 1 1.94zm-7.141 2.498c-1.392-6.126.113-9.937.113-9.937l9.342 3.043c-3.257-6.242-6.385-2.903-6.385-2.903l-2.518-.819C5.696 7.02 9.739 8.708 9.739 8.708c5.357 2.372 6.36 10.97 6.36 10.97L4.988 16.054c-.787 2.6.549 6.877.549 6.877l-2.066-.674zM34.45.986c-1.43-.737-2.836-.38-4.315.24L18.367 6.357 6.449 1.227C4.969.604 3.832.642 2.895.991 1.393 1.554.623 2.453.623 4.1v23.52c0 2.008 1.18 3.816 2.983 4.575l12.717 5.347c.28.117 1.307.46 2.181.46.765 0 1.633-.347 1.905-.46l12.717-5.347c1.804-.759 2.984-2.567 2.984-4.575V4.1c0-1.646-.354-2.44-1.66-3.113z" mask="url(#mask-2)" transform="translate(108 3.263)" fill="#9E1D22"></path><path d="M113.163 2.751c.126.035.25.067.38.104l.328.116c.493.189.913.39 1.4.597.957.412 1.963.859 2.963 1.314l7.787 3.545a349.782 349.782 0 00-6.769-4.676l-1.472-.965a25.242 25.242 0 00-1.424-.863 3.148 3.148 0 00-1.263-.406 3.796 3.796 0 00-1.198.05 3.471 3.471 0 00-.931.333 3.439 3.439 0 00-.885.685c.122.007.238.011.363.026.233.043.466.065.722.14" fill="#9E1D22"></path><path d="M1.611 1.465l.26.161c.071.052.144.106.218.158.323.25.59.493.91.753.618.518 1.27 1.072 1.91 1.631 1.33 1.158 2.654 2.311 3.626 3.16.453.368 1.125.893 1.485 1.19-.857-1.09-2.595-3.136-4.104-4.964-.586-.698-1.184-1.423-1.75-1.999A2.475 2.475 0 003.32.973a3.002 3.002 0 00-.9-.226 2.615 2.615 0 00-1.576.354c.086.033.174.062.262.1.165.084.332.152.506.264" mask="url(#mask-4)" transform="translate(116 -.737)" fill="#9E1D22"></path><path d="M137.29 3.568c.489-.208.91-.409 1.403-.597l.326-.116c.13-.037.255-.07.38-.104.257-.076.49-.098.724-.14.123-.016.24-.019.36-.026a3.392 3.392 0 00-.262-.257 3.396 3.396 0 00-1.556-.761 3.79 3.79 0 00-1.197-.05 3.155 3.155 0 00-1.26.405c-.45.246-.94.555-1.424.863l-1.472.966a353.31 353.31 0 00-6.77 4.675c.864-.39 4.322-1.967 7.787-3.545.998-.455 2.005-.9 2.962-1.313" fill="#9E1D22"></path><path d="M5.656 4.168c.639-.56 1.289-1.113 1.909-1.63.317-.261.584-.503.909-.753l.219-.158c.088-.056.173-.109.259-.161.173-.113.34-.18.505-.264.089-.038.175-.067.263-.1A2.615 2.615 0 008.146.747a3 3 0 00-.903.226c-.307.13-.588.312-.847.582-.565.575-1.164 1.3-1.748 1.998-1.51 1.828-3.25 3.874-4.106 4.963.36-.295 1.032-.82 1.484-1.188.973-.85 2.299-2.002 3.63-3.16" mask="url(#mask-6)" transform="translate(126 -.737)" fill="#9E1D22"></path><path d="M.03 36.52v1.935s4.675-.403 5.339-4.354v-10.59H3.294s.139 8.387-.056 10.08c0 0 .139 2.203-3.208 2.93m6.079 1.706c.733-6.873 3.133-10.57 5.27-12.54v3.614a10.281 10.281 0 00-1.575 2.932h1.576v2.273H8.9c-.705 2.271-.648 3.721-.648 3.721H6.109zm5.27-12.54c2.092-1.889 3.98-2.193 3.98-2.193v14.733H12.96v-3.72h-1.58v-2.274h1.58v-4.548s-.732.547-1.58 1.616v-3.614zm5.586-2.135h2.322c.473.03.887.082 1.274.19v2.283c-.387-.16-.86-.269-1.466-.292v5.643s.719 0 1.466-.35v4.92c-.86-.969-1.217-1.887-1.217-1.887-.221.085-.277.033-.277.033v4.084h-2.102V23.552zm3.596.19c3.263.89 3.57 4.243 3.57 4.243.22 3.55-2.796 5.081-2.796 5.081.747 2.422 3.21 3.091 3.21 3.091v2.02a6.559 6.559 0 01-3.984-2.232v-4.92c.748-.379 1.52-1.156 1.44-2.82 0 0-.058-1.508-1.44-2.18v-2.283z" fill="#9E1D22"></path><path mask="url(#mask-8)" d="M25.79 39.176h2.24V24.474h-2.24zm4.04-14.624h2.35c.473.03.889.082 1.248.19v2.283c-.39-.189-.857-.292-1.47-.32v5.671s.75 0 1.47-.35v4.945c-.857-.994-1.22-1.937-1.22-1.937-.22.11-.274.058-.274.058v4.084H29.83V24.552zm3.598.19c3.265.86 3.569 4.243 3.569 4.243.221 3.524-2.794 5.054-2.794 5.054.744 2.42 3.21 3.094 3.21 3.094v2.043c-1.883-.302-3.157-1.292-3.985-2.205v-4.946c.775-.379 1.549-1.183 1.465-2.848 0 0-.053-1.48-1.465-2.152v-2.283zm27.03 14.488c.73-6.864 3.127-10.556 5.265-12.523v3.608a10.205 10.205 0 00-1.575 2.928h1.575v2.271h-2.478c-.705 2.268-.647 3.715-.647 3.715h-2.14zm5.265-12.523c2.087-1.889 3.972-2.192 3.972-2.192V39.23H67.3v-3.715h-1.577v-2.272H67.3V28.7s-.732.548-1.577 1.616v-3.609zm-23.316-2.149h2.352c.472.03.888.081 1.248.19v2.284c-.39-.189-.859-.29-1.47-.319v5.673s.75 0 1.47-.352v4.948c-.859-.994-1.22-1.938-1.22-1.938-.22.111-.275.058-.275.058v4.087h-2.105V24.56zm3.6.19c3.266.861 3.57 4.245 3.57 4.245.221 3.527-2.796 5.057-2.796 5.057.748 2.42 3.211 3.095 3.211 3.095v2.044c-1.883-.302-3.157-1.293-3.985-2.207v-4.948c.774-.378 1.55-1.183 1.465-2.848 0 0-.052-1.48-1.465-2.154v-2.284zm46.403-.241h2.36c.475.031.893.081 1.253.192v2.291c-.391-.19-.862-.292-1.475-.32v5.693s.752 0 1.475-.353v4.967c-.862-.998-1.224-1.944-1.224-1.944-.221.11-.275.057-.275.057v4.102H92.41V24.507zm3.613.192c3.279.865 3.582 4.26 3.582 4.26.224 3.54-2.805 5.074-2.805 5.074.75 2.43 3.223 3.105 3.223 3.105v2.054c-1.89-.304-3.168-1.299-4-2.215V32.01c.777-.379 1.556-1.187 1.47-2.858 0 0-.051-1.487-1.47-2.162V24.7zm-44.945 6.565s-.324 7.727 7.926 7.988v-1.988s-4.96-.078-5.58-4.349h5.554v-2.019h-5.554s.46-4.32 5.554-4.4l-.048-1.963s-6.963-.185-7.852 6.731m31.469 0s-.324 7.727 7.927 7.988v-1.988s-4.961-.078-5.581-4.349h5.555v-2.019h-5.555s.46-4.32 5.555-4.4l-.05-1.963s-6.961-.185-7.851 6.731m-9.045-4.783c3.02.027 5.479 2.412 5.479 5.37 0 2.934-2.46 5.346-5.48 5.346v2.017c4.155 0 7.526-3.278 7.526-7.309 0-4.062-3.371-7.362-7.525-7.362v1.938z" transform="translate(0 -1)" fill="#9E1D22"></path><path mask="url(#mask-8)" d="M71.47 39.221h2.066v-14.68H71.47zM0 17.388s.502 2.244 3.4 1.982c0 0 2.4-.332 3.126-3.388h17.493V9.82h-2.355v3.497H6.479V12.13H4.08v3.807s0 2.881-4.08 1.451" transform="translate(0 -1)" fill="#9E1D22"></path><path d="M13.872 19.59c.815 0 1.494-.66 1.494-1.475 0-.814-.679-1.475-1.494-1.475a1.48 1.48 0 00-1.497 1.475c0 .815.66 1.475 1.497 1.475m3.215-.022c.84 0 1.52-.638 1.52-1.453 0-.793-.68-1.475-1.52-1.475-.816 0-1.494.682-1.494 1.475 0 .815.678 1.453 1.494 1.453m27.621-6.313H31.077V12.02h-2.399v4.243s-.908 2.512-4.057.532c0 0 .5 2.615 3.399 2.355 0 0 2.379-.156 3.104-3.215h17.365v-2.507h-.973s.339-2.551-2.561-3.7c0 0-4.122-.655-5.682-1.361 0 0-.908-.373-1.677-1.582 0 0-1.112 1.319.158 3.363 0 0 .067.905 3.01 1.167 0 0 2.129.15 3.353.86 0 0 .773.484.591 1.14" mask="url(#mask-8)" transform="translate(0 -1)" fill="#9E1D22"></path><path d="M42.059 19.568c.814 0 1.492-.66 1.492-1.453a1.49 1.49 0 00-1.492-1.475c-.838 0-1.496.66-1.496 1.475 0 .793.657 1.453 1.495 1.453m26.181-7.767c.01.4 0-1.16 0 1.567h-10.42l-.008-.03c-.172-.624.56-1.08.56-1.08 1.158-.673 3.175-.816 3.175-.816 2.57-.228 2.85-1.107 2.85-1.107 1.202-1.934.149-3.183.149-3.183-.726 1.145-1.586 1.497-1.586 1.497-1.641.572-5.383 1.291-5.383 1.291-2.228.763-2.1 3.503-2.1 3.503l.004.004v2.561h15.027v-3.62c0-2.593.986-2.452 1.836-2.452v2.953l2.314-1.06v-4.19c-3.642 0-6.418.23-6.418 4.162m-7.387-4.725h-2.983v-.253c0-.388 0-1.171.757-1.171.207 0 .345.093.552.346 0 0 1.169-.23 1.375-.298-.344-.804-1.01-1.217-1.972-1.217-1.928 0-2.158 1.722-2.158 2.364v.229h-1.125V8.36h5.553V7.076zm19.366 8.597c-.663 2.803-2.847 2.947-2.847 2.947-2.656.24-3.114-2.162-3.114-2.162 2.886 1.815 3.717-.484 3.717-.484V12.08h2.244v3.592zm3.802-2.354V4.524h-2.286v11.484h1.872l1.604-2.69zM97.569 7.06c-3.526 0-4.684 2.494-4.684 4.418v1.055l4.585-.03v.816h-6.442v2.69l8.728-.012V7.06h-2.187zm-.1 3.605h-2.63c.056-.423.416-.948.789-1.274.425-.37 1.013-.408 1.7-.408h.142v1.682z" mask="url(#mask-8)" transform="translate(0 -1)" fill="#9E1D22"></path><path mask="url(#mask-8)" d="M85.21 13.319l-1.604 2.689h7.422v-2.69zm10.053-6.564c.815 0 1.495-.66 1.495-1.47 0-.818-.68-1.478-1.495-1.478-.836 0-1.495.66-1.495 1.477 0 .811.66 1.471 1.495 1.471m3.215-.021c.84 0 1.52-.638 1.52-1.45 0-.794-.68-1.476-1.52-1.476-.814 0-1.491.682-1.491 1.476 0 .812.677 1.45 1.492 1.45" transform="translate(0 -1)" fill="#9E1D22"></path></g></symbol></defs>
<use xlink:href="#jarir-reader-logo">
</use></svg>