<svg xmlns:xlink="http://www.w3.org/1999/xlink" xmlns="http://www.w3.org/2000/svg" class="icon list__icon" width="20"  height="20" ><defs><symbol viewBox="0 0 20 20" id="call" xmlns="http://www.w3.org/2000/svg"><path d="M4.017.005c-.35-.029-.738.072-1.097.324-.316.22-.997.762-1.634 1.374a8.077 8.077 0 00-.856.935c-.236.313-.442.598-.43 1.014.013.372.05 1.474.844 3.164.793 1.687 2.332 4.003 5.333 7.006 3.003 3.003 5.32 4.541 7.007 5.335 1.688.793 2.792.83 3.165.842.413.013.699-.193 1.011-.429a8.24 8.24 0 00.936-.855 15.918 15.918 0 001.372-1.635c.502-.715.419-1.56-.14-1.952-.352-.247-3.584-2.397-4.07-2.696-.494-.301-1.062-.165-1.57.103-.399.212-1.48.83-1.788 1.008-.233-.147-1.115-.734-3.012-2.631-1.9-1.898-2.485-2.78-2.632-3.012.177-.309.795-1.384 1.008-1.79.266-.506.415-1.08.097-1.576-.133-.212-.738-1.133-1.348-2.057C5.6 1.552 5.02.675 4.869.466V.464a1.147 1.147 0 00-.852-.46zm5.98.914v.908c4.51 0 8.178 3.668 8.178 8.178h.909c0-5.01-4.077-9.086-9.087-9.086zM3.934.933c.124.016.198.065.198.065.073.102.71 1.056 1.32 1.98.611.924 1.234 1.871 1.343 2.044.017.026.042.328-.135.663v.002c-.2.382-1.136 2.016-1.136 2.016l-.13.229.133.227s.698 1.177 2.917 3.395c2.22 2.218 3.397 2.917 3.397 2.917l.227.134.229-.13s1.63-.933 2.016-1.136c.335-.175.637-.152.673-.131a399.58 399.58 0 014.02 2.664c.007.005.197.292-.08.686h-.002c-.167.24-.713.934-1.283 1.527a7.504 7.504 0 01-.827.76c-.249.186-.47.244-.435.246-.387-.013-1.24-.021-2.808-.758-1.567-.735-3.803-2.206-6.751-5.155-2.947-2.946-4.418-5.182-5.155-6.751C.931 4.86.922 4.007.91 3.621c.002.036.06-.188.247-.436.186-.249.461-.543.758-.829A15.93 15.93 0 013.44 1.073v.002a.7.7 0 01.494-.142zm6.063 2.504v.908c3.121 0 5.66 2.54 5.66 5.66h.908a6.575 6.575 0 00-6.568-6.568zm0 2.479v.909a3.184 3.184 0 013.18 3.18h.909a4.093 4.093 0 00-4.09-4.089z" fill="#42526E" fill-rule="nonzero"></path></symbol></defs>
<use xlink:href="#call"></use>
</svg>